<svg
  viewBox="0 0 32 32"
  width="20px"
  height="20px"
  fill="none"
  xmlns="http://www.w3.org/2000/svg"
>
  <g clip-path="url(#clip0_1001_4)">
    <path
      d="M29.3031 32H2.70305C2.34797 32.0023 1.99596 31.9341 1.66739 31.7994C1.33883 31.6648 1.04022 31.4663 0.788854 31.2155C0.537486 30.9647 0.338345 30.6665 0.20295 30.3382C0.0675542 30.01 -0.0014074 29.6581 5.39467e-05 29.303V2.70302C-0.00219649 2.34794 0.0659831 1.99593 0.200649 1.66736C0.335314 1.33879 0.533792 1.04019 0.784602 0.788823C1.03541 0.537455 1.33357 0.338314 1.66184 0.202918C1.99011 0.067523 2.34196 -0.0014386 2.69705 2.27478e-05H29.4011C30.8021 2.27478e-05 32.0001 1.19702 32.0001 2.69702V29.302C32.0001 30.802 30.8031 31.999 29.3031 31.999V32ZM16.0001 5.30302H12.0001C10.2241 5.30382 8.5212 6.00965 7.26544 7.26541C6.00968 8.52117 5.30385 10.2241 5.30305 12V20C5.30385 21.7759 6.00968 23.4789 7.26544 24.7346C8.5212 25.9904 10.2241 26.6962 12.0001 26.697H20.0001C21.776 26.6962 23.4789 25.9904 24.7347 24.7346C25.9904 23.4789 26.6963 21.7759 26.6971 20V14.697C26.6971 13.901 26.0981 13.302 25.2971 13.302H24.0001C23.3031 13.302 22.6971 12.697 22.6971 11.999C22.6974 11.1192 22.5245 10.2478 22.1882 9.43482C21.8519 8.62178 21.3587 7.88296 20.7368 7.26053C20.1149 6.6381 19.3765 6.14425 18.5638 5.80718C17.7511 5.47011 16.8799 5.29642 16.0001 5.29602V5.30302ZM20.0991 21.303H12.0001C11.3031 21.303 10.6971 20.698 10.6971 20C10.6971 19.302 11.3021 18.697 12.0001 18.697H20.0991C20.8031 18.697 21.4021 19.297 21.4021 20C21.4021 20.703 20.8031 21.303 20.0991 21.303ZM16.6971 10.697C17.4011 10.697 18.0001 11.302 18.0001 12C18.0001 12.698 17.4011 13.303 16.6971 13.303H11.9011C11.1971 13.303 10.5981 12.698 10.5981 12C10.5981 11.302 11.1971 10.697 11.9011 10.697H16.6971Z"
      fill="#878D89"
    />
  </g>
  <defs>
    <clipPath id="clip0_1001_4">
      <rect width="32" height="32" fill="white" />
    </clipPath>
  </defs>
</svg>
